<svg xmlns="http://www.w3.org/2000/svg" viewBox="0 0 1200 760" fill="none">
  <rect width="1200" height="760" rx="44" fill="#EEF8F5"/>
  <circle cx="987" cy="127" r="83" fill="#D9EFE8"/>
  <path d="M0 607C148 575 237 594 360 630C471 663 585 680 711 655C843 629 929 578 1200 604V760H0V607Z" fill="#DAF0E8"/>
  <rect x="183" y="184" width="838" height="375" rx="38" fill="#fff" stroke="#D0E5DE" stroke-width="10"/>
  <rect x="237" y="233" width="328" height="278" rx="28" fill="#F8FCFB"/>
  <circle cx="402" cy="315" r="45" fill="#CBEADF"/>
  <rect x="353" y="372" width="98" height="94" rx="28" fill="#CBEADF"/>
  <path d="M615 253H963V491H615V253Z" fill="#F7FCFA"/>
  <rect x="667" y="299" width="211" height="18" rx="9" fill="#0F746C" fill-opacity=".12"/>
  <rect x="667" y="340" width="247" height="16" rx="8" fill="#0F746C" fill-opacity=".08"/>
  <rect x="667" y="372" width="223" height="16" rx="8" fill="#0F746C" fill-opacity=".08"/>
  <rect x="667" y="419" width="179" height="49" rx="15" fill="#0F746C"/>
  <path d="M747 436C760 419 783 419 796 436L815 460H728L747 436Z" fill="#fff"/>
  <circle cx="280" cy="128" r="26" fill="#0F746C" fill-opacity=".08"/>
  <circle cx="337" cy="89" r="12" fill="#0F746C" fill-opacity=".16"/>
</svg>
